<?xml version="1.0" encoding="utf-8"?>
<!-- Generator: Adobe Illustrator 16.0.0, SVG Export Plug-In . SVG Version: 6.00 Build 0)  -->
<!DOCTYPE svg PUBLIC "-//W3C//DTD SVG 1.1//EN" "http://www.w3.org/Graphics/SVG/1.1/DTD/svg11.dtd">
<svg version="1.1" id="Layer_1" xmlns="http://www.w3.org/2000/svg" xmlns:xlink="http://www.w3.org/1999/xlink" x="0px" y="0px"
	 width="320px" height="320px" viewBox="0 0 320 320" enable-background="new 0 0 320 320" xml:space="preserve">
<g>
	<title>icon/Solid Active</title>
	<desc>Created with Sketch.</desc>
	<g id="icon_x2F_Solid-Active_1_">
		<g id="solid-logo_1_" transform="translate(0.000000, 1.100000)">
			<path id="XMLID_14_" fill="#FFFFFF" d="M72.057,280.266L11.413,175.085c-5.621-9.742-5.621-21.755,0-31.49L72.057,38.487
				c5.656-9.771,16.084-15.777,27.269-15.777h121.252c11.228,0,21.684,6.006,27.276,15.777l60.68,105.154
				c5.606,9.746,5.606,21.745,0,31.5l-60.651,105.175c-5.664,9.771-16.077,15.771-27.276,15.771H99.418
				C88.141,296.044,77.742,290.002,72.057,280.266z"/>
			<path id="XMLID_13_" fill="#7C55FB" d="M77.242,273.117l-57.037-98.918c-5.321-9.171-5.321-20.47,0-29.629l57.037-98.94
				c5.321-9.196,15.113-14.838,25.69-14.838h114.082c10.563,0,20.384,5.642,25.676,14.838l57.102,98.897
				c5.292,9.181,5.292,20.48,0,29.615l-57.073,99.012c-5.32,9.192-15.12,14.834-25.69,14.834H102.996
				C92.354,287.987,82.563,282.316,77.242,273.117z"/>
			<path id="XMLID_12_" fill="#F7F7F7" d="M102.511,140.345h117.374c1.492,0,2.656-1.204,2.656-2.657v-22.009
				c0-14.627-11.877-26.501-26.525-26.501H125.58c-20.512-0.021-37.096,16.584-37.096,37.086
				C88.44,134.078,94.718,140.345,102.511,140.345z"/>
			<path id="XMLID_11_" fill="#F7F7F7" d="M114.023,237.578h70.136c21.184,0,38.382-17.213,38.382-38.375
				c0-7.077-5.721-12.819-12.806-12.819H90.998c-1.471,0-2.514,1.171-2.514,2.557v23.012
				C88.44,226.108,99.918,237.578,114.023,237.578z"/>
			<path id="XMLID_10_" fill="#F7F7F7" d="M93.668,137.438l87.548,87.526c5.785,5.8,15.156,5.8,20.955,0l15.156-15.162
				c5.82-5.793,5.82-15.185,0-20.977l-87.506-87.531c-5.792-5.803-15.17-5.803-20.955,0l-15.17,15.163
				C87.826,122.254,87.826,131.667,93.668,137.438z"/>
			<polygon id="XMLID_9_" opacity="0.3" fill="#444444" enable-background="new    " points="182.631,226.451 131.201,186.383 
				142.571,186.383 			"/>
			<polygon id="XMLID_8_" opacity="0.3" fill="#444444" enable-background="new    " points="128.372,99.841 168.89,140.345 
				182.631,140.345 			"/>
		</g>
	</g>
</g>
</svg>
