<?xml version="1.0" encoding="utf-8"?>
<!-- Generator: Adobe Illustrator 16.0.0, SVG Export Plug-In . SVG Version: 6.00 Build 0)  -->
<!DOCTYPE svg PUBLIC "-//W3C//DTD SVG 1.1//EN" "http://www.w3.org/Graphics/SVG/1.1/DTD/svg11.dtd">
<svg version="1.1" id="Layer_1" xmlns="http://www.w3.org/2000/svg" xmlns:xlink="http://www.w3.org/1999/xlink" x="0px" y="0px"
	 width="320px" height="320px" viewBox="0 0 320 320" enable-background="new 0 0 320 320" xml:space="preserve">
<g>
	<title>icon/Solid Active</title>
	<desc>Created with Sketch.</desc>
	<g id="icon_x2F_Solid-Active_1_">
		<g id="solid-logo_1_" transform="translate(0.000000, 1.100000)">
			<path id="XMLID_14_" fill="#FFFFFF" d="M68.604,285.013L5.579,175.702c-5.842-10.125-5.842-22.61,0-32.728L68.604,33.738
				c5.878-10.155,16.716-16.396,28.34-16.396h126.015c11.669,0,22.535,6.242,28.346,16.396l63.064,109.284
				c5.825,10.128,5.825,22.599,0,32.737l-63.033,109.306c-5.887,10.155-16.708,16.391-28.347,16.391H97.04
				C85.32,301.412,74.513,295.13,68.604,285.013z"/>
			<path id="XMLID_13_" fill="#1C1C1C" d="M73.993,277.583L14.716,174.78c-5.53-9.531-5.53-21.273,0-30.792L73.993,41.162
				c5.53-9.557,15.707-15.42,26.699-15.42h118.562c10.979,0,21.186,5.864,26.685,15.42l59.345,102.781
				c5.5,9.542,5.5,21.285,0,30.778l-59.314,102.9c-5.529,9.553-15.713,15.417-26.698,15.417H100.759
				C89.699,293.037,79.523,287.143,73.993,277.583z"/>
		</g>
	</g>
</g>
<g>
	<path fill="#FFFFFF" d="M192.907,202.461c0-3.391-0.49-6.447-1.471-9.171c-0.983-2.724-2.881-5.246-5.691-7.568
		c-2.813-2.32-6.697-4.596-11.653-6.83c-4.955-2.229-11.363-4.598-19.219-7.099c-8.929-2.856-17.343-6.07-25.245-9.643
		c-7.901-3.569-14.821-7.788-20.758-12.656c-5.939-4.865-10.626-10.467-14.063-16.807c-3.438-6.339-5.156-13.748-5.156-22.232
		c0-8.123,1.762-15.556,5.291-22.298c3.525-6.741,8.48-12.476,14.865-17.209c6.382-4.731,13.972-8.415,22.767-11.049
		c8.793-2.632,18.458-3.951,28.997-3.951c10.802,0,20.623,1.496,29.462,4.486c8.84,2.993,16.384,7.165,22.635,12.522
		c6.246,5.357,11.068,11.718,14.463,19.084c3.394,7.366,5.091,15.424,5.091,24.173h-40.181c0-4.105-0.646-7.901-1.941-11.384
		c-1.295-3.481-3.28-6.472-5.96-8.973c-2.676-2.499-6.024-4.44-10.043-5.826c-4.018-1.383-8.751-2.076-14.196-2.076
		c-5.27,0-9.844,0.582-13.728,1.741c-3.884,1.162-7.098,2.769-9.642,4.822c-2.545,2.054-4.466,4.464-5.759,7.231
		c-1.295,2.769-1.942,5.714-1.942,8.839c0,6.428,3.281,11.808,9.843,16.137c6.563,4.332,16.182,8.371,28.862,12.121
		c10.623,3.304,19.978,6.963,28.058,10.981c8.079,4.018,14.818,8.572,20.224,13.661c5.399,5.089,9.485,10.804,12.253,17.142
		c2.766,6.342,4.153,13.526,4.153,21.563c0,8.571-1.676,16.205-5.023,22.901c-3.349,6.694-8.102,12.344-14.263,16.942
		c-6.16,4.598-13.594,8.123-22.3,10.577c-8.703,2.455-18.413,3.686-29.129,3.686c-6.428,0-12.856-0.561-19.285-1.676
		c-6.429-1.115-12.568-2.834-18.415-5.156c-5.849-2.32-11.273-5.224-16.272-8.703c-5.001-3.482-9.354-7.589-13.058-12.323
		c-3.705-4.731-6.608-10.11-8.705-16.138c-2.099-6.025-3.147-12.7-3.147-20.021h40.312c0,5.893,0.937,10.895,2.813,14.999
		c1.875,4.108,4.486,7.435,7.835,9.979c3.348,2.544,7.386,4.397,12.12,5.557c4.731,1.163,9.998,1.74,15.803,1.74
		c5.178,0,9.688-0.555,13.526-1.673c3.839-1.115,7.008-2.655,9.511-4.62c2.497-1.962,4.351-4.307,5.556-7.03
		S192.907,205.589,192.907,202.461z"/>
</g>
</svg>
